<svg width="76" height="76" fill="none" xmlns="http://www.w3.org/2000/svg">
  <g clip-path="url(#clip0)" fill="#5D62B5">
    <path d="M72.2.18H31.667c-.192.004-.381.05-.552.137-10.022.956-17.843 8.966-18.425 18.872a19.767 19.767 0 001.013 7.216C6.161 26.67.205 32.804.267 40.24c.062 7.437 6.121 13.473 13.667 13.615h49.4c2.798 0 5.066 2.236 5.066 4.993 0 2.758-2.268 4.993-5.066 4.993h-26.6c0-1.379-1.135-2.496-2.534-2.496H24.067c-1.4 0-2.533 1.117-2.533 2.496h-3.078a1.2 1.2 0 01-1.09-.864c-.915-2.471-3.296-4.12-5.966-4.129H6.334C2.838 58.852.004 61.644 0 65.09v6.104c-.024 1.864 1.31 3.477 3.167 3.829a3.829 3.829 0 003.32-1.043A3.717 3.717 0 007.6 71.33v-4.993l2.674.045c.627 2.879 3.205 4.939 6.193 4.948h5.067c0 1.379 1.134 2.496 2.533 2.496H34.2c1.4 0 2.534-1.117 2.534-2.496h26.6C70.329 71.33 76 65.742 76 58.848s-5.67-12.482-12.666-12.482h-49.4c-3.498 0-6.334-2.795-6.334-6.242s2.836-6.24 6.334-6.24h4.286c.017.017.03.035.047.053 3.813 3.968 9.12 6.208 14.667 6.187 8.842 0 15.041-3.68 19.142-6.116l.506-.303c5.33-3.152 17.887-10.753 21.607-13.007A3.707 3.707 0 0076 17.508V3.926C76 1.857 74.3.18 72.2.18zM16.467 68.834c-1.79-.005-3.335-1.237-3.713-2.962a2.524 2.524 0 00-2.481-2.03H7.6c-1.399 0-2.533 1.117-2.533 2.496v4.993c0 .37-.167.72-.456.957a1.28 1.28 0 01-1.037.27 1.356 1.356 0 01-1.04-1.365V65.09c0-2.068 1.701-3.744 3.8-3.744H11.4a3.824 3.824 0 013.581 2.476c.491 1.486 1.889 2.499 3.475 2.517h3.078v2.496h-5.067zm26.6-66.157v1.248c0 .69-.567 1.248-1.267 1.248h-7.6c-.7 0-1.266-.559-1.266-1.248V2.702c.18 0 .356-.025.537-.025h9.596zm-19 68.654v-7.49H34.2v7.49H24.067zM13.934 31.386c-4.897 0-8.867 3.913-8.867 8.738 0 4.826 3.97 8.738 8.867 8.738h49.4c5.596 0 10.133 4.471 10.133 9.986 0 5.515-4.537 9.986-10.133 9.986h-26.6v-2.496h26.6c4.197 0 7.6-3.353 7.6-7.49 0-4.136-3.403-7.49-7.6-7.49h-49.4c-6.296 0-11.4-5.03-11.4-11.234s5.104-11.234 11.4-11.234h.766c.437.867.938 1.702 1.5 2.497h-2.266zM73.467 17.51a1.23 1.23 0 01-.6 1.06c-3.72 2.255-16.264 9.85-21.586 12.996l-.513.303c-3.86 2.295-9.696 5.76-17.834 5.76-4.853 0-9.493-1.96-12.84-5.421a17.33 17.33 0 01-4.873-12.901c.493-8.308 6.827-15.138 15.18-16.368v.987c0 2.068 1.7 3.745 3.8 3.745h7.6c2.098 0 3.8-1.677 3.8-3.745V2.677h26.6c.699 0 1.266.559 1.266 1.248v13.584z"/>
    <path d="M67.133 5.173H50.667c-2.099 0-3.8 1.677-3.8 3.745v8.951a3.69 3.69 0 001.113 2.65l2.992 2.948a3.841 3.841 0 002.697 1.092 3.812 3.812 0 001.79-.443l13.475-7.15a3.737 3.737 0 002-3.298v-4.75c0-2.068-1.702-3.745-3.8-3.745zm1.267 8.495c0 .46-.256.882-.666 1.1l-13.476 7.15a1.288 1.288 0 01-1.495-.216l-2.992-2.949a1.24 1.24 0 01-.371-.884V8.92c0-.69.567-1.25 1.267-1.25h16.466c.7 0 1.267.56 1.267 1.25v4.749z"/>
  </g>
  <defs>
    <clipPath id="clip0">
      <path fill="#fff" transform="translate(0 .18)" d="M0 0h76v74.895H0z"/>
    </clipPath>
  </defs>
</svg>
