<svg width="76" height="76" fill="none" xmlns="http://www.w3.org/2000/svg">
  <path d="M26.6 52.607H19c-.7 0-1.267.559-1.267 1.248v7.49c0 .69.568 1.248 1.267 1.248h7.6c.7 0 1.267-.559 1.267-1.248v-7.49c0-.69-.567-1.248-1.267-1.248zm-1.267 7.49h-5.066v-4.994h5.066v4.993zM44.333 38.876H31.667c-1.4 0-2.534 1.118-2.534 2.497v4.992c0 1.38 1.135 2.497 2.534 2.497h12.666c1.4 0 2.534-1.118 2.534-2.497v-4.992c0-1.38-1.135-2.497-2.534-2.497zm0 3.745h-5.066v-1.248h5.066v1.248zm-7.6-1.248v1.248h-5.066v-1.248h5.066zm-5.066 3.744h5.066v1.248h-5.066v-1.248zm7.6 1.248v-1.248h5.066v1.248h-5.066z" fill="#5D62B5"/>
  <path d="M69.557 63.927a6.234 6.234 0 00-2.694-4.02 6.407 6.407 0 00-4.796-.934V36.897l2.27 2.238a3.995 3.995 0 005.592 0 3.856 3.856 0 000-5.51l-7.862-7.748v-15.71c1.399 0 2.533-1.119 2.533-2.497V5.173c0-1.378-1.134-2.496-2.533-2.496H49.4c-1.399 0-2.533 1.118-2.533 2.496V7.67c0 1.378 1.134 2.496 2.533 2.496v3.228l-8.713-8.586a3.933 3.933 0 00-5.374 0L6.071 33.625a3.857 3.857 0 000 5.51 3.995 3.995 0 005.591 0l2.271-2.238V63.07a5.094 5.094 0 00-5.588-1.41c-1.98.728-3.288 2.596-3.278 4.678C2.269 66.338 0 68.573 0 71.33c0 .69.567 1.248 1.267 1.248h73.466c.7 0 1.267-.559 1.267-1.248-.005-3.695-2.739-6.836-6.443-7.404zm-11.3-2.531c0-.018.01-.032.01-.051v-7.49c0-.69-.568-1.248-1.267-1.248h-7.6c-.7 0-1.267.559-1.267 1.248v7.49c0 .69.567 1.248 1.267 1.248H57c.23-.006.455-.076.648-.201A6.102 6.102 0 0057 65.089v.125c-2.482.507-4.42 2.421-4.928 4.868h-5.205V51.36c0-.69-.567-1.249-1.267-1.249H30.4c-.7 0-1.267.56-1.267 1.249v18.723h-7.712c-.465-2.676-2.36-4.896-4.954-5.806V35.13h43.066V60.13c-.485.36-.915.786-1.276 1.267zm-2.524-6.293v4.993h-5.066v-4.992h5.066zM49.4 5.173h12.667V7.67H49.4V5.173zm2.533 4.993h7.6V23.38l-7.6-7.49v-5.724zM9.871 37.37a1.435 1.435 0 01-2.009 0 1.385 1.385 0 010-1.98L37.104 6.573a1.28 1.28 0 011.792 0L68.138 35.39a1.386 1.386 0 010 1.98 1.435 1.435 0 01-2.01 0L40.688 12.297a3.84 3.84 0 00-5.374 0L9.871 37.37zm27.233-23.308a1.28 1.28 0 011.792 0l18.846 18.573H18.258l18.846-18.573zm-34.23 56.02a2.544 2.544 0 013.301-.98 1.28 1.28 0 001.455-.238c.384-.378.48-.954.24-1.434a2.438 2.438 0 01-.27-1.092 2.497 2.497 0 012.104-2.463 2.526 2.526 0 012.807 1.648 1.267 1.267 0 001.422.815c2.31.003 4.326 1.542 4.907 3.745H2.874zm28.793 0V52.607h12.666v17.475H31.667zm23.016 0a3.765 3.765 0 013.505-2.496c.043 0 .17.019.213.02.4.012.784-.16 1.038-.465.253-.31.34-.719.237-1.101a3.641 3.641 0 01-.143-.95c0-2.069 1.702-3.745 3.8-3.745 2.099 0 3.8 1.677 3.8 3.745 0 .689.568 1.248 1.267 1.248 2.31.003 4.326 1.542 4.907 3.745H54.683z" fill="#5D62B5"/>
  <path d="M35.466 56.352h-2.533v2.496H34.2v2.497h-1.267v2.496h2.533c.7 0 1.267-.559 1.267-1.248V57.6c0-.69-.567-1.248-1.267-1.248z" fill="#5D62B5"/>
</svg>
