<svg width="76" height="76" viewBox="0 0 76 76" fill="none" xmlns="http://www.w3.org/2000/svg">
  <g clip-path="url(#clip0)" fill="#5D62B5">
    <path d="M74.243 15.907a2.243 2.243 0 00-1.907-1.041H57.924C56.499 6.545 49.154.18 40.31.18c-9.86 0-17.882 7.905-17.882 17.623 0 8.337 6.172 13.17 8.495 14.989.163.128.309.24.433.34-.061.967-.35 3.135-1.735 4.09-.992.688-2.512.69-4.514.003-1.758-.603-3.417-1.665-4.93-3.157l-8.856-8.727a3.108 3.108 0 00-2.418-.887 3.122 3.122 0 00-2.27 1.235 26.3 26.3 0 00-5.068 18.58c.006.25.169 6.24 2.444 12.93 3.079 9.05 8.584 14.963 15.917 17.103 1.78.52 3.739.773 5.986.773h10.22c4.57 0 8.99-1.304 12.78-3.77l.384-.25c10.634-7.046 14.48-20.517 8.947-31.335-1.64-3.207-3.9-5.762-6.73-7.61a46.505 46.505 0 001.935-2.56h7.956c1.766 0 3.4-.447 4.73-1.291 4.017-2.557 6.876-7.497 8.223-10.216a2.167 2.167 0 00-.115-2.136zM55.584 41.042c4.858 9.499 1.441 21.354-8 27.609l-.31.204a20.378 20.378 0 01-11.141 3.283h-10.22c-1.957 0-3.636-.214-5.14-.652C5.275 66.963 4.553 44.43 4.54 44.085c-.852-8.145 2.448-13.928 4.492-16.649l-1.199-.874 1.383.855 8.857 8.726c1.831 1.808 3.87 3.105 6.054 3.855 2.96 1.016 5.381.89 7.208-.373 2.672-1.847 3-5.406 3.016-6.842a2.037 2.037 0 00-.648-1.532 15.702 15.702 0 00-.925-.76c-2.206-1.727-7.37-5.77-7.37-12.69 0-8.097 6.686-14.685 14.903-14.685 7.658 0 13.98 5.724 14.805 13.058l.027.292c.04.44.07.884.07 1.335 0 .454-.057.931-.14 1.417-.015.088-.029.175-.047.265-.202 1.028-.564 2.111-1.05 3.216-.01.02-.018.04-.027.061a28.372 28.372 0 01-1.812 3.38c-.058.093-.12.187-.18.281a40.946 40.946 0 01-3.353 4.556 2.048 2.048 0 00-.464 1.683 2.117 2.117 0 001.03 1.465c2.72 1.585 4.879 3.911 6.415 6.917zM64.52 25.79c-.846.539-1.923.824-3.114.824h-6.078a31.495 31.495 0 001.165-2.241c.041-.091.086-.182.127-.272.116-.257.224-.514.33-.774.05-.12.103-.24.15-.36.083-.214.157-.43.233-.646.05-.147.109-.295.155-.439.039-.117.067-.236.103-.355.158-.527.29-1.044.383-1.547.01-.051.024-.104.033-.155.044-.251.073-.495.101-.739.012-.095.03-.19.039-.286.031-.338.048-.671.048-.996h12.943c-1.24 2.293-3.606 6.07-6.618 7.986z"/>
    <path d="M50.742 14.866c0-4.05-3.342-7.343-7.45-7.343-4.11 0-7.452 3.294-7.452 7.343 0 4.048 3.343 7.342 7.451 7.342 4.109 0 7.451-3.294 7.451-7.342zm-11.921 0c0-2.43 2.006-4.406 4.47-4.406a4.454 4.454 0 014.295 3.25 2.989 2.989 0 00-1.314-.313c-1.647 0-2.98 1.314-2.98 2.937 0 1.15.676 2.134 1.652 2.617a4.512 4.512 0 01-1.653.32c-2.464 0-4.47-1.976-4.47-4.405zM40.122 43.581c-2.386-1.273-5.318-1.057-8.73.648-3.473 1.737-7.46 3.085-12.186 4.122l-.565.123a2.384 2.384 0 00-1.599 1.202 2.3 2.3 0 00-.106 1.96c1.244 3.084 6.062 13.132 15.859 13.177.12.009.35.024.663.024 1.456 0 4.722-.296 7.41-2.673 2.598-2.301 3.915-5.857 3.915-10.566l-.008-.157c-.027-.234-.67-5.73-4.653-7.86zM38.9 59.957c-2.489 2.225-5.854 1.928-5.88 1.928l-.157-.009c-7.408 0-11.488-7.498-12.886-10.685 4.92-1.087 9.098-2.508 12.767-4.344 2.473-1.238 4.476-1.474 5.95-.69 2.43 1.29 3.034 4.99 3.11 5.53-.018 3.779-.994 6.56-2.904 8.27z"/>
  </g>
  <defs>
    <clipPath id="clip0">
      <path fill="#fff" transform="translate(0 .18)" d="M0 0h76v74.895H0z"/>
    </clipPath>
  </defs>
</svg>
