<svg width="76" height="76" fill="none" xmlns="http://www.w3.org/2000/svg">
  <g clip-path="url(#clip0)" fill="#5D62B5">
    <path d="M67.132 8.558V1.433c0-.69-.566-1.248-1.266-1.248H25.332c-.699 0-1.266.558-1.266 1.248v7.171L16.62 22.055a1.236 1.236 0 00-.154.598v26.214h2.533V22.97l7.086-12.8h37.647l-6.578 11.884a1.235 1.235 0 00-.155.598V67.59H46.866v2.497h22.8c3.496-.004 6.33-2.796 6.333-6.241V22.653c0-.237-.069-.47-.197-.67l-8.67-13.425zM26.6 7.674V2.681h38v4.993h-38zm46.867 56.172c0 2.068-1.701 3.744-3.8 3.744H59.533V22.971l6.417-11.594 7.516 11.64v40.829z"/>
    <path d="M18.255 52.938a5.049 5.049 0 00-1.79-.327c-2.309.003-4.325 1.542-4.904 3.745h-.162c-2.798 0-5.066 2.236-5.066 4.993H5.066c-.545 0-1.029.344-1.2.854l-3.8 11.234c-.13.38-.064.799.173 1.124.238.325.62.519 1.027.519h43.067c.407 0 .789-.194 1.027-.519.237-.325.302-.744.174-1.124l-3.8-11.234a1.265 1.265 0 00-1.201-.854h-1.267c0-2.757-2.268-4.993-5.067-4.993h-.16c-.58-2.203-2.596-3.742-4.906-3.745-.611 0-1.218.111-1.788.327a5.044 5.044 0 00-4.546-2.823 5.043 5.043 0 00-4.544 2.823zM39.62 63.845l2.955 8.738H3.025l2.954-8.738h33.64zm-14.314-8.907c.033.479.343.896.795 1.073a1.28 1.28 0 001.326-.239 2.549 2.549 0 012.731-.458 2.482 2.482 0 011.508 2.29c0 .69.567 1.248 1.267 1.248h1.266c1.4 0 2.534 1.118 2.534 2.497H8.866c0-1.379 1.134-2.497 2.533-2.497h1.267c.7 0 1.267-.558 1.267-1.248a2.485 2.485 0 011.507-2.288 2.55 2.55 0 012.73.456 1.28 1.28 0 001.326.24 1.25 1.25 0 00.794-1.074c.084-1.305 1.183-2.32 2.51-2.32 1.326 0 2.424 1.015 2.51 2.32h-.004zM31.665 30.143h2.533v2.496h-2.533v-2.496zM44.332 30.143h2.533v2.496h-2.533v-2.496z"/>
    <path d="M50.633 15.467l-5.506 4.69H33.99l-5.987-4.72a1.28 1.28 0 00-1.688.092 7.494 7.494 0 00-2.247 5.538 7.507 7.507 0 002.53 5.417v13.645c0 6.894 5.672 12.482 12.667 12.482 6.996 0 12.667-5.588 12.667-12.482V26.635a7.731 7.731 0 002.521-5.306 7.809 7.809 0 00-2.062-5.766 1.28 1.28 0 00-1.758-.096zm-24.025 5.695a5.016 5.016 0 01.795-2.997l3.905 3.08-3.218 3.17a5.021 5.021 0 01-1.482-3.253zm12.657 28.953c-1.373 0-2.533-.858-2.533-1.873 0-1.014 1.16-1.872 2.533-1.872s2.534.858 2.534 1.872c0 1.015-1.16 1.873-2.534 1.873zM49.4 40.129c-.004 3.59-1.964 6.902-5.133 8.674.036-.185.059-.372.066-.56-.189-2.579-2.448-4.528-5.067-4.37-2.618-.157-4.877 1.791-5.066 4.37.008.188.03.375.066.56-3.17-1.772-5.129-5.084-5.133-8.674V26.915l4.324-4.262h11.619l2.533 2.497h-2.01c-3.497 0-6.333 2.794-6.333 6.24 0 3.448 2.836 6.242 6.334 6.242h3.8v2.497zm0-4.993h-3.8c-2.099 0-3.8-1.677-3.8-3.745s1.701-3.745 3.8-3.745h3.8v7.49zm1.114-10.654l-3.054-3.01 3.79-3.23c.502.9.736 1.922.674 2.948a5.254 5.254 0 01-1.41 3.292zM69.665 55.108h-6.333c-.7 0-1.267.559-1.267 1.248v4.993c0 .69.568 1.248 1.267 1.248h6.333c.7 0 1.267-.559 1.267-1.248v-4.993c0-.69-.566-1.248-1.267-1.248zM68.4 60.1h-3.8v-2.497h3.8v2.497zM62.065 50.115H68.4v2.496h-6.334v-2.496zM62.065 45.122h8.867v2.496h-8.867v-2.496zM46.865 62.597h7.6v2.497h-7.6v-2.497zM46.865 57.605h7.6V60.1h-7.6v-2.496zM62.065 40.129h8.867v2.496h-8.867V40.13zM62.065 35.136h3.8v2.496h-3.8v-2.496zM68.399 35.136h2.533v2.496H68.4v-2.496zM62.065 22.653h8.867v2.496h-8.867v-2.496zM62.065 27.646h8.867v2.497h-8.867v-2.497z"/>
  </g>
  <defs>
    <clipPath id="clip0">
      <path fill="#fff" transform="translate(0 .185)" d="M0 0h76v74.895H0z"/>
    </clipPath>
  </defs>
</svg>
